<svg width="113" height="27" viewBox="0 0 113 27" fill="none" xmlns="http://www.w3.org/2000/svg">
<path d="M33.6692 12.0354C33.5928 11.9766 33.4946 11.961 33.4056 11.9936C33.4056 11.9936 23.4923 15.6185 23.2214 15.7188C22.9944 15.8028 22.8476 15.5917 22.8476 15.5917L19.7282 11.4494C19.6504 11.3461 19.5207 11.3069 19.4042 11.3511C19.2879 11.3953 19.21 11.5137 19.21 11.6465V26.6819C19.21 26.7865 19.2585 26.8843 19.3396 26.9425C19.3882 26.9775 19.4448 26.9954 19.5016 26.9954C19.5392 26.9954 19.5771 26.9875 19.6129 26.9715L33.6108 20.753C33.7199 20.7045 33.791 20.5902 33.791 20.4634V12.2901C33.791 12.1892 33.7457 12.0944 33.6692 12.0354Z" fill="white"/>
<path d="M36.9419 8.67554L34.2705 4.83732C34.2322 4.78225 34.1779 4.7423 34.1162 4.72359L18.5873 0.00979667C18.5355 -0.00596492 18.4653 -0.001398 18.4127 0.0141845L2.88377 4.72798C2.82221 4.74669 2.7679 4.78654 2.72958 4.84171L0.0581077 8.68002C0.00213091 8.76044 -0.0145288 8.86477 0.013043 8.96059C0.0406982 9.05641 0.10942 9.13236 0.197883 9.16468L13.329 13.956C13.3597 13.9672 13.3914 13.9728 13.4227 13.9728C13.5089 13.9728 13.5927 13.9314 13.6491 13.8567L17.3249 8.98575L18.4146 9.30815C18.4652 9.3232 18.5187 9.3232 18.5693 9.30815V9.30743C18.5747 9.306 18.5802 9.30537 18.5853 9.30376L19.675 8.98137L23.3509 13.8523C23.4073 13.927 23.4911 13.9683 23.5773 13.9683C23.6087 13.9683 23.6403 13.9628 23.671 13.9516L36.8022 9.1603C36.8906 9.12797 36.9594 9.05202 36.987 8.9562C37.0145 8.8602 36.9978 8.75596 36.9419 8.67554ZM18.5083 7.97343L7.37199 4.70245L18.5083 1.34174L29.6282 4.69815L18.5083 7.97343Z" fill="white"/>
<path d="M17.5958 11.3556C17.4795 11.3113 17.3496 11.3505 17.2718 11.4539L14.1525 15.5962C14.1525 15.5962 14.0055 15.8072 13.7786 15.7234C13.5077 15.623 3.59453 11.9981 3.59453 11.9981C3.5054 11.9656 3.40727 11.9812 3.33089 12.0399C3.25442 12.0989 3.20911 12.1937 3.20911 12.2948V20.4682C3.20911 20.595 3.28024 20.7093 3.38928 20.7577L17.3871 26.9762C17.423 26.9921 17.4609 27 17.4984 27C17.5554 27 17.6119 26.9822 17.6605 26.9472C17.7415 26.889 17.79 26.7912 17.79 26.6866V11.6509C17.79 11.5182 17.7122 11.3998 17.5958 11.3556Z" fill="white"/>
<path d="M44.402 11.656V14.708C44.402 14.7733 44.444 14.8153 44.528 14.834C44.8453 14.8713 45.0973 14.89 45.284 14.89C45.956 14.89 46.474 14.736 46.838 14.428C47.2113 14.1107 47.398 13.672 47.398 13.112C47.398 12.0013 46.6933 11.446 45.284 11.446C45.0507 11.446 44.794 11.4693 44.514 11.516C44.4393 11.5347 44.402 11.5813 44.402 11.656ZM42.862 20C42.6473 20 42.4607 19.9207 42.302 19.762C42.1433 19.6033 42.064 19.4167 42.064 19.202V10.648C42.064 10.424 42.1387 10.2233 42.288 10.046C42.4373 9.86867 42.624 9.77067 42.848 9.752C43.6413 9.67733 44.4067 9.64 45.144 9.64C48.1307 9.64 49.624 10.7507 49.624 12.972C49.624 14.176 49.274 15.0907 48.574 15.716C47.8833 16.332 46.866 16.64 45.522 16.64C45.1673 16.64 44.836 16.626 44.528 16.598C44.444 16.598 44.402 16.6353 44.402 16.71V19.202C44.402 19.4167 44.3227 19.6033 44.164 19.762C44.0053 19.9207 43.8187 20 43.604 20H42.862ZM54.063 16.668C52.9243 16.668 52.355 17.018 52.355 17.718C52.355 17.97 52.4297 18.1707 52.579 18.32C52.7283 18.46 52.929 18.53 53.181 18.53C53.629 18.53 53.993 18.39 54.273 18.11C54.553 17.8207 54.693 17.438 54.693 16.962V16.794C54.693 16.71 54.651 16.668 54.567 16.668H54.063ZM52.495 20.14C51.851 20.14 51.319 19.9347 50.899 19.524C50.4883 19.104 50.283 18.5627 50.283 17.9C50.283 16.2013 51.543 15.352 54.063 15.352H54.567C54.651 15.352 54.693 15.3147 54.693 15.24V15.17C54.693 14.8153 54.5997 14.5587 54.413 14.4C54.2357 14.2413 53.9323 14.162 53.503 14.162C52.9337 14.162 52.2523 14.2507 51.459 14.428C51.263 14.4653 51.0857 14.4233 50.927 14.302C50.7777 14.1807 50.703 14.022 50.703 13.826V13.798C50.703 13.5647 50.773 13.3547 50.913 13.168C51.0623 12.972 51.249 12.8553 51.473 12.818C52.2943 12.6593 53.0037 12.58 53.601 12.58C54.8237 12.58 55.687 12.7993 56.191 13.238C56.7043 13.6767 56.961 14.4047 56.961 15.422V19.202C56.961 19.4167 56.8817 19.6033 56.723 19.762C56.5643 19.9207 56.3777 20 56.163 20H55.645C55.421 20 55.2297 19.9253 55.071 19.776C54.9123 19.6173 54.8283 19.426 54.819 19.202V19.048C54.819 19.0387 54.8143 19.034 54.805 19.034C54.7863 19.034 54.777 19.0387 54.777 19.048C54.189 19.776 53.4283 20.14 52.495 20.14ZM59.5944 20C59.3797 20 59.1931 19.9207 59.0344 19.762C58.8851 19.6033 58.8104 19.4167 58.8104 19.202V10.298C58.8104 10.0833 58.8851 9.89667 59.0344 9.738C59.1931 9.57933 59.3797 9.5 59.5944 9.5H60.2804C60.4951 9.5 60.6771 9.57933 60.8264 9.738C60.9851 9.89667 61.0644 10.0833 61.0644 10.298V15.464C61.0644 15.4733 61.0691 15.478 61.0784 15.478L61.1064 15.464L62.8564 13.336C63.1924 12.9253 63.6217 12.72 64.1444 12.72H65.1524C65.3017 12.72 65.4091 12.79 65.4744 12.93C65.5491 13.07 65.5351 13.2007 65.4324 13.322L63.0384 16.136C62.9917 16.192 62.9917 16.2527 63.0384 16.318L65.4604 19.384C65.5537 19.5147 65.5631 19.65 65.4884 19.79C65.4231 19.93 65.3111 20 65.1524 20H64.1444C63.6217 20 63.1971 19.79 62.8704 19.37L61.1064 17.074C61.0971 17.0647 61.0877 17.06 61.0784 17.06C61.0691 17.06 61.0644 17.0647 61.0644 17.074V19.202C61.0644 19.4167 60.9851 19.6033 60.8264 19.762C60.6771 19.9207 60.4951 20 60.2804 20H59.5944ZM69.5323 14.106C69.1123 14.106 68.795 14.218 68.5803 14.442C68.3657 14.6567 68.2303 15.03 68.1743 15.562C68.1743 15.6367 68.207 15.674 68.2723 15.674H70.6383C70.7223 15.674 70.7643 15.632 70.7643 15.548C70.727 14.5867 70.3163 14.106 69.5323 14.106ZM69.8823 20.14C68.613 20.14 67.633 19.818 66.9423 19.174C66.261 18.53 65.9203 17.592 65.9203 16.36C65.9203 15.1373 66.2237 14.204 66.8303 13.56C67.4463 12.9067 68.333 12.58 69.4903 12.58C71.7117 12.58 72.841 13.7933 72.8783 16.22C72.8783 16.444 72.7897 16.6353 72.6123 16.794C72.4443 16.9433 72.2483 17.018 72.0243 17.018H68.2863C68.193 17.018 68.1557 17.06 68.1743 17.144C68.249 17.6573 68.445 18.026 68.7623 18.25C69.089 18.4647 69.5743 18.572 70.2183 18.572C70.6383 18.572 71.091 18.5113 71.5763 18.39C71.7723 18.3433 71.945 18.3807 72.0943 18.502C72.253 18.6233 72.3323 18.782 72.3323 18.978V19.006C72.3323 19.2393 72.2577 19.454 72.1083 19.65C71.9683 19.8367 71.7863 19.9487 71.5623 19.986C71.021 20.0887 70.461 20.14 69.8823 20.14ZM74.624 14.582C74.4093 14.582 74.2226 14.5073 74.064 14.358C73.9053 14.1993 73.826 14.0127 73.826 13.798C73.826 13.5833 73.9053 13.3967 74.064 13.238C74.2226 13.0793 74.4093 13 74.624 13H75.184C75.2586 13 75.296 12.958 75.296 12.874V11.138C75.296 10.9233 75.3753 10.7367 75.534 10.578C75.6926 10.4193 75.8793 10.34 76.094 10.34H76.766C76.9806 10.34 77.1673 10.4193 77.326 10.578C77.4846 10.7367 77.564 10.9233 77.564 11.138V12.874C77.564 12.958 77.606 13 77.69 13H79.062C79.2766 13 79.4586 13.0793 79.608 13.238C79.7666 13.3967 79.846 13.5833 79.846 13.798C79.846 14.0127 79.7666 14.1993 79.608 14.358C79.4586 14.5073 79.2766 14.582 79.062 14.582H77.69C77.606 14.582 77.564 14.624 77.564 14.708V17.102C77.564 17.69 77.6153 18.0633 77.718 18.222C77.83 18.3807 78.0726 18.46 78.446 18.46C78.642 18.46 78.796 18.4507 78.908 18.432C79.1133 18.404 79.2953 18.4507 79.454 18.572C79.6126 18.6933 79.692 18.852 79.692 19.048V19.16C79.692 19.3933 79.6173 19.5987 79.468 19.776C79.3186 19.9533 79.1273 20.056 78.894 20.084C78.6046 20.1213 78.2686 20.14 77.886 20.14C76.934 20.14 76.262 19.9393 75.87 19.538C75.4873 19.1273 75.296 18.3947 75.296 17.34V14.708C75.296 14.624 75.2586 14.582 75.184 14.582H74.624ZM86.9037 20C86.689 20 86.5024 19.9207 86.3437 19.762C86.1944 19.6033 86.1197 19.4167 86.1197 19.202V10.578C86.1197 10.3633 86.1944 10.1767 86.3437 10.018C86.5024 9.85933 86.689 9.78 86.9037 9.78H87.9397C88.1544 9.78 88.3364 9.85933 88.4857 10.018C88.6444 10.1767 88.7237 10.3633 88.7237 10.578V19.202C88.7237 19.4167 88.6444 19.6033 88.4857 19.762C88.3364 19.9207 88.1544 20 87.9397 20H86.9037ZM93.388 11.712V18.068C93.388 18.152 93.43 18.2033 93.514 18.222C93.7007 18.2593 93.9247 18.278 94.186 18.278C95.1287 18.278 95.824 18.0027 96.272 17.452C96.7293 16.9013 96.958 16.0007 96.958 14.75C96.958 13.63 96.7293 12.8087 96.272 12.286C95.8147 11.7633 95.1193 11.502 94.186 11.502C93.9247 11.502 93.7007 11.5207 93.514 11.558C93.43 11.5767 93.388 11.628 93.388 11.712ZM91.848 20.028C91.624 20.0093 91.4373 19.916 91.288 19.748C91.1387 19.5707 91.064 19.3653 91.064 19.132V10.648C91.064 10.4147 91.1387 10.214 91.288 10.046C91.4373 9.86867 91.624 9.77067 91.848 9.752C92.576 9.67733 93.2947 9.64 94.004 9.64C95.6747 9.64 96.9627 10.0833 97.868 10.97C98.7733 11.8567 99.226 13.1167 99.226 14.75C99.226 16.5233 98.7733 17.8673 97.868 18.782C96.9627 19.6873 95.6747 20.14 94.004 20.14C93.2947 20.14 92.576 20.1027 91.848 20.028ZM101.528 20C101.313 20 101.127 19.9207 100.968 19.762C100.809 19.6033 100.73 19.4167 100.73 19.202V10.578C100.73 10.3633 100.809 10.1767 100.968 10.018C101.127 9.85933 101.313 9.78 101.528 9.78H102.214C102.746 9.78 103.133 10.0133 103.376 10.48L106.316 16.038C106.316 16.0473 106.321 16.052 106.33 16.052C106.339 16.052 106.344 16.0473 106.344 16.038V10.578C106.344 10.3633 106.423 10.1767 106.582 10.018C106.741 9.85933 106.927 9.78 107.142 9.78H107.828C108.043 9.78 108.229 9.85933 108.388 10.018C108.547 10.1767 108.626 10.3633 108.626 10.578V19.202C108.626 19.4167 108.547 19.6033 108.388 19.762C108.229 19.9207 108.043 20 107.828 20H107.142C106.61 20 106.223 19.7667 105.98 19.3L103.04 13.742C103.04 13.7327 103.035 13.728 103.026 13.728C103.017 13.728 103.012 13.7327 103.012 13.742V19.202C103.012 19.4167 102.933 19.6033 102.774 19.762C102.615 19.9207 102.429 20 102.214 20H101.528Z" fill="white"/>
</svg>
