<svg width="10" height="8" viewBox="0 0 10 8" fill="none" xmlns="http://www.w3.org/2000/svg">
<path d="M9.0998 3.56605C9.07915 3.54864 9.05261 3.54402 9.02854 3.55365C9.02854 3.55365 6.34927 4.6277 6.27606 4.65744C6.21471 4.68233 6.17504 4.61976 6.17504 4.61976L5.33197 3.39243C5.31092 3.36181 5.27587 3.35019 5.2444 3.36329C5.21297 3.3764 5.19189 3.41148 5.19189 3.45083V7.90576C5.19189 7.93676 5.20502 7.96573 5.22693 7.98298C5.24007 7.99335 5.25536 7.99863 5.27071 7.99863C5.28087 7.99863 5.29111 7.9963 5.30079 7.99155L9.08402 6.14904C9.11351 6.13468 9.13271 6.1008 9.13271 6.06322V3.64151C9.13271 3.61163 9.12047 3.58353 9.0998 3.56605Z" fill="#4082E6"/>
<path d="M9.98429 2.57053L9.26229 1.43328C9.25193 1.41696 9.23728 1.40513 9.2206 1.39958L5.0236 0.00290272C5.0096 -0.00176738 4.99062 -0.000414222 4.97641 0.00420281L0.779396 1.40088C0.762759 1.40643 0.748081 1.41824 0.737725 1.43458L0.0157048 2.57186C0.000575923 2.59568 -0.00392671 2.6266 0.00352515 2.65499C0.0109995 2.68338 0.0295729 2.70588 0.0534819 2.71546L3.60244 4.13512C3.61074 4.13844 3.6193 4.14008 3.62776 4.14008C3.65106 4.14008 3.67371 4.12782 3.68895 4.10569L4.68241 2.66245L4.97693 2.75797C4.9906 2.76243 5.00505 2.76243 5.01874 2.75797V2.75776C5.02018 2.75733 5.02167 2.75715 5.02306 2.75667L5.31758 2.66115L6.31106 4.10439C6.3263 4.12652 6.34895 4.13876 6.37225 4.13876C6.38072 4.13876 6.38927 4.13714 6.39758 4.13382L9.94653 2.71416C9.97044 2.70458 9.98902 2.68208 9.99649 2.65369C10.0039 2.62524 9.99942 2.59436 9.98429 2.57053ZM5.00224 2.3625L1.99243 1.39332L5.00224 0.397553L8.00761 1.39205L5.00224 2.3625Z" fill="#4082E6"/>
<path d="M4.7556 3.36458C4.72418 3.35147 4.68908 3.36307 4.66805 3.39371L3.82498 4.62108C3.82498 4.62108 3.78526 4.68359 3.72394 4.65876C3.65072 4.62901 0.971478 3.55497 0.971478 3.55497C0.947389 3.54533 0.920868 3.54995 0.900224 3.56736C0.879557 3.58482 0.86731 3.61292 0.86731 3.64288V6.06462C0.86731 6.10219 0.886536 6.13605 0.916006 6.1504L4.69921 7.99292C4.70889 7.99764 4.71913 7.99997 4.72929 7.99997C4.74468 7.99997 4.75995 7.99469 4.7731 7.98432C4.79498 7.96707 4.8081 7.9381 4.8081 7.9071V3.45209C4.8081 3.41277 4.78705 3.37769 4.7556 3.36458Z" fill="#4082E6"/>
</svg>
